<svg xmlns="http://www.w3.org/2000/svg" xmlns:xlink="http://www.w3.org/1999/xlink" width="2007" zoomAndPan="magnify" viewBox="134 182 1371 310" height="786" preserveAspectRatio="xMidYMid meet" version="1.0"><defs><g/><clipPath id="a92c04a3ce"><path d="M 134 341 L 1504.238281 341 L 1504.238281 378 L 134 378 Z M 134 341 " clip-rule="nonzero"/></clipPath></defs><g fill="#f59e0b" fill-opacity="1"><g transform="translate(151.694658, 315.394668)"><g><path d="M 60.796875 -120.65625 C 74.640625 -120.65625 85.585938 -118.484375 93.640625 -114.140625 C 101.703125 -109.796875 107.460938 -103.09375 110.921875 -94.03125 C 114.390625 -84.96875 116.125 -73.445312 116.125 -59.46875 C 116.125 -45.5 114.390625 -33.984375 110.921875 -24.921875 C 107.460938 -15.859375 101.703125 -9.15625 93.640625 -4.8125 C 85.585938 -0.46875 74.640625 1.703125 60.796875 1.703125 C 48.960938 1.703125 39.332031 0.757812 31.90625 -1.125 C 24.476562 -3.019531 18.941406 -4.597656 15.296875 -5.859375 C 13.273438 -6.484375 11.664062 -7.675781 10.46875 -9.4375 C 9.28125 -11.195312 8.6875 -13.085938 8.6875 -15.109375 L 8.6875 -103.84375 C 8.6875 -105.988281 9.28125 -107.941406 10.46875 -109.703125 C 11.664062 -111.460938 13.273438 -112.65625 15.296875 -113.28125 C 18.941406 -114.664062 24.476562 -116.238281 31.90625 -118 C 39.332031 -119.769531 48.960938 -120.65625 60.796875 -120.65625 Z M 37.578125 -23.984375 C 40.085938 -23.222656 43.265625 -22.492188 47.109375 -21.796875 C 50.953125 -21.109375 55.203125 -20.765625 59.859375 -20.765625 C 69.296875 -20.765625 76.21875 -23.597656 80.625 -29.265625 C 85.03125 -34.929688 87.234375 -45 87.234375 -59.46875 C 87.234375 -73.945312 85.03125 -84.019531 80.625 -89.6875 C 76.21875 -95.351562 69.296875 -98.1875 59.859375 -98.1875 C 55.203125 -98.1875 50.953125 -97.867188 47.109375 -97.234375 C 43.265625 -96.609375 40.085938 -95.914062 37.578125 -95.15625 Z M 37.578125 -23.984375 "/></g></g></g><g fill="#f59e0b" fill-opacity="1"><g transform="translate(273.858921, 315.394668)"><g><path d="M 46.828125 -86.671875 C 60.421875 -86.671875 70.269531 -84.40625 76.375 -79.875 C 82.476562 -75.34375 85.53125 -67.722656 85.53125 -57.015625 L 85.53125 -3.78125 C 85.53125 -1.882812 84.929688 -0.5 83.734375 0.375 C 82.535156 1.257812 80.113281 1.703125 76.46875 1.703125 C 70.800781 1.703125 67.085938 0.0664062 65.328125 -3.203125 L 62.875 -8.6875 C 60.101562 -6.039062 56.328125 -3.644531 51.546875 -1.5 C 46.765625 0.632812 40.722656 1.703125 33.421875 1.703125 C 24.984375 1.703125 18.34375 -0.5 13.5 -4.90625 C 8.65625 -9.3125 6.234375 -15.796875 6.234375 -24.359375 C 6.234375 -33.421875 9.160156 -40.5625 15.015625 -45.78125 C 20.867188 -51.007812 30.71875 -53.625 44.5625 -53.625 C 47.332031 -53.625 49.972656 -53.460938 52.484375 -53.140625 C 55.003906 -52.828125 57.269531 -52.484375 59.28125 -52.109375 L 59.28125 -53.25 C 59.28125 -62.9375 53.492188 -67.78125 41.921875 -67.78125 C 38.390625 -67.78125 34.925781 -67.367188 31.53125 -66.546875 C 28.132812 -65.734375 24.734375 -64.632812 21.328125 -63.25 C 20.578125 -63 20.078125 -62.875 19.828125 -62.875 C 18.941406 -62.875 18.054688 -63.375 17.171875 -64.375 C 16.296875 -65.382812 15.289062 -67.273438 14.15625 -70.046875 C 12.894531 -73.316406 12.265625 -75.707031 12.265625 -77.21875 C 12.265625 -78.601562 12.957031 -79.613281 14.34375 -80.25 C 17.75 -81.757812 20.960938 -82.984375 23.984375 -83.921875 C 27.003906 -84.867188 30.304688 -85.5625 33.890625 -86 C 37.472656 -86.445312 41.785156 -86.671875 46.828125 -86.671875 Z M 59.28125 -21.90625 L 59.28125 -35.3125 C 57.519531 -35.6875 55.566406 -36 53.421875 -36.25 C 51.285156 -36.5 49.023438 -36.625 46.640625 -36.625 C 37.191406 -36.625 32.46875 -33.226562 32.46875 -26.4375 C 32.46875 -22.90625 33.472656 -20.320312 35.484375 -18.6875 C 37.503906 -17.050781 40.273438 -16.234375 43.796875 -16.234375 C 47.453125 -16.234375 50.535156 -16.832031 53.046875 -18.03125 C 55.566406 -19.226562 57.644531 -20.519531 59.28125 -21.90625 Z M 59.28125 -21.90625 "/></g></g></g><g fill="#f59e0b" fill-opacity="1"><g transform="translate(368.078351, 315.394668)"><g><path d="M 21.53125 -128.765625 C 27.3125 -128.765625 31.050781 -128.320312 32.75 -127.4375 C 34.457031 -126.5625 35.3125 -125.117188 35.3125 -123.109375 L 35.3125 -108.9375 C 35.3125 -106.925781 34.457031 -105.507812 32.75 -104.6875 C 31.050781 -103.875 27.3125 -103.46875 21.53125 -103.46875 C 15.738281 -103.46875 11.957031 -103.875 10.1875 -104.6875 C 8.425781 -105.507812 7.546875 -106.925781 7.546875 -108.9375 L 7.546875 -123.109375 C 7.546875 -125.117188 8.425781 -126.5625 10.1875 -127.4375 C 11.957031 -128.320312 15.738281 -128.765625 21.53125 -128.765625 Z M 21.53125 -86.671875 C 27.0625 -86.671875 30.613281 -86.257812 32.1875 -85.4375 C 33.757812 -84.613281 34.546875 -83.195312 34.546875 -81.1875 L 34.546875 -3.78125 C 34.546875 -1.757812 33.757812 -0.34375 32.1875 0.46875 C 30.613281 1.289062 27.0625 1.703125 21.53125 1.703125 C 15.988281 1.703125 12.398438 1.289062 10.765625 0.46875 C 9.128906 -0.34375 8.3125 -1.757812 8.3125 -3.78125 L 8.3125 -81.1875 C 8.3125 -83.195312 9.128906 -84.613281 10.765625 -85.4375 C 12.398438 -86.257812 15.988281 -86.671875 21.53125 -86.671875 Z M 21.53125 -86.671875 "/></g></g></g><g fill="#f59e0b" fill-opacity="1"><g transform="translate(410.750887, 315.394668)"><g><path d="M 96.296875 -86.671875 C 107.878906 -86.671875 116.15625 -84.40625 121.125 -79.875 C 126.09375 -75.34375 128.578125 -68.039062 128.578125 -57.96875 L 128.578125 -3.78125 C 128.578125 -1.757812 127.757812 -0.34375 126.125 0.46875 C 124.488281 1.289062 120.898438 1.703125 115.359375 1.703125 C 109.828125 1.703125 106.238281 1.289062 104.59375 0.46875 C 102.957031 -0.34375 102.140625 -1.757812 102.140625 -3.78125 L 102.140625 -55.703125 C 102.140625 -59.722656 101.257812 -62.550781 99.5 -64.1875 C 97.738281 -65.832031 94.65625 -66.65625 90.25 -66.65625 C 87.101562 -66.65625 84.144531 -65.960938 81.375 -64.578125 C 81.625 -63.566406 81.75 -62.492188 81.75 -61.359375 C 81.75 -60.234375 81.75 -59.101562 81.75 -57.96875 L 81.75 -3.78125 C 81.75 -1.757812 80.929688 -0.34375 79.296875 0.46875 C 77.660156 1.289062 74.070312 1.703125 68.53125 1.703125 C 63 1.703125 59.445312 1.289062 57.875 0.46875 C 56.300781 -0.34375 55.515625 -1.757812 55.515625 -3.78125 L 55.515625 -55.703125 C 55.515625 -59.722656 54.535156 -62.550781 52.578125 -64.1875 C 50.628906 -65.832031 47.453125 -66.65625 43.046875 -66.65625 C 41.535156 -66.65625 40.148438 -66.523438 38.890625 -66.265625 C 37.628906 -66.015625 36.375 -65.640625 35.125 -65.140625 L 35.125 -3.78125 C 35.125 -1.757812 34.300781 -0.34375 32.65625 0.46875 C 31.019531 1.289062 27.4375 1.703125 21.90625 1.703125 C 16.363281 1.703125 12.773438 1.289062 11.140625 0.46875 C 9.503906 -0.34375 8.6875 -1.757812 8.6875 -3.78125 L 8.6875 -68.734375 C 8.6875 -72.378906 10.132812 -75.207031 13.03125 -77.21875 C 15.414062 -78.988281 19.09375 -81.003906 24.0625 -83.265625 C 29.039062 -85.535156 35.875 -86.671875 44.5625 -86.671875 C 57.144531 -86.671875 66.394531 -84.53125 72.3125 -80.25 C 75.207031 -82.007812 78.632812 -83.519531 82.59375 -84.78125 C 86.5625 -86.039062 91.128906 -86.671875 96.296875 -86.671875 Z M 96.296875 -86.671875 "/></g></g></g><g fill="#f59e0b" fill-opacity="1"><g transform="translate(547.831645, 315.394668)"><g><path d="M 47.390625 -86.671875 C 61.617188 -86.671875 71.625 -83.019531 77.40625 -75.71875 C 83.195312 -68.414062 86.09375 -58.40625 86.09375 -45.6875 C 86.09375 -41.789062 85.179688 -38.769531 83.359375 -36.625 C 81.535156 -34.488281 78.421875 -33.421875 74.015625 -33.421875 L 33.234375 -33.421875 C 34.367188 -27.503906 36.789062 -23.285156 40.5 -20.765625 C 44.207031 -18.253906 49.210938 -17 55.515625 -17 C 59.410156 -17 62.679688 -17.375 65.328125 -18.125 C 67.972656 -18.882812 70.804688 -19.890625 73.828125 -21.140625 C 74.578125 -21.398438 75.144531 -21.53125 75.53125 -21.53125 C 76.53125 -21.53125 77.4375 -20.992188 78.25 -19.921875 C 79.070312 -18.847656 80.113281 -16.925781 81.375 -14.15625 C 82.632812 -11.132812 83.265625 -8.867188 83.265625 -7.359375 C 83.265625 -5.972656 82.570312 -4.90625 81.1875 -4.15625 C 78.039062 -2.894531 75.019531 -1.820312 72.125 -0.9375 C 69.226562 -0.0625 66.050781 0.59375 62.59375 1.03125 C 59.132812 1.476562 54.945312 1.703125 50.03125 1.703125 C 34.925781 1.703125 23.847656 -2.039062 16.796875 -9.53125 C 9.753906 -17.019531 6.234375 -28.003906 6.234375 -42.484375 C 6.234375 -57.085938 9.597656 -68.101562 16.328125 -75.53125 C 23.066406 -82.957031 33.421875 -86.671875 47.390625 -86.671875 Z M 62.3125 -50.609375 C 61.800781 -57.023438 60.378906 -61.488281 58.046875 -64 C 55.722656 -66.519531 52.359375 -67.78125 47.953125 -67.78125 C 43.546875 -67.78125 40.082031 -66.488281 37.5625 -63.90625 C 35.050781 -61.332031 33.484375 -56.898438 32.859375 -50.609375 Z M 62.3125 -50.609375 "/></g></g></g><g fill="#1e293b" fill-opacity="1"><g transform="translate(151.694658, 468.017618)"><g><path d="M 4.34375 -33.359375 C 4.34375 -44.941406 6.8125 -53.554688 11.75 -59.203125 C 16.695312 -64.847656 24.21875 -67.671875 34.3125 -67.671875 C 38.90625 -67.671875 42.929688 -67.210938 46.390625 -66.296875 C 49.847656 -65.378906 52.882812 -64.109375 55.5 -62.484375 C 56.0625 -62.128906 56.34375 -61.671875 56.34375 -61.109375 C 56.34375 -60.472656 56.0625 -59.585938 55.5 -58.453125 C 54.644531 -56.765625 53.898438 -55.921875 53.265625 -55.921875 C 53.054688 -55.921875 52.8125 -55.988281 52.53125 -56.125 C 50.414062 -57.539062 47.835938 -58.597656 44.796875 -59.296875 C 41.765625 -60.003906 38.550781 -60.359375 35.15625 -60.359375 C 27.675781 -60.359375 22.1875 -58.171875 18.6875 -53.796875 C 15.195312 -49.421875 13.453125 -42.609375 13.453125 -33.359375 C 13.453125 -24.179688 15.195312 -17.367188 18.6875 -12.921875 C 22.1875 -8.472656 27.675781 -6.25 35.15625 -6.25 C 38.550781 -6.25 41.78125 -6.632812 44.84375 -7.40625 C 47.914062 -8.1875 50.476562 -9.25 52.53125 -10.59375 C 52.8125 -10.726562 53.054688 -10.796875 53.265625 -10.796875 C 53.898438 -10.796875 54.644531 -9.953125 55.5 -8.265625 C 56.0625 -7.128906 56.34375 -6.207031 56.34375 -5.5 C 56.34375 -4.9375 56.0625 -4.476562 55.5 -4.125 C 52.957031 -2.570312 49.9375 -1.335938 46.4375 -0.421875 C 42.945312 0.492188 38.90625 0.953125 34.3125 0.953125 C 24.21875 0.953125 16.695312 -1.882812 11.75 -7.5625 C 6.8125 -13.25 4.34375 -21.847656 4.34375 -33.359375 Z M 4.34375 -33.359375 "/></g></g></g><g fill="#1e293b" fill-opacity="1"><g transform="translate(209.62534, 468.017618)"><g><path d="M 12.703125 -23.828125 C 12.703125 -17.398438 13.847656 -12.753906 16.140625 -9.890625 C 18.441406 -7.035156 21.957031 -5.609375 26.6875 -5.609375 C 31.414062 -5.609375 34.925781 -7.035156 37.21875 -9.890625 C 39.519531 -12.753906 40.671875 -17.398438 40.671875 -23.828125 C 40.671875 -30.253906 39.539062 -34.894531 37.28125 -37.75 C 35.019531 -40.613281 31.488281 -42.046875 26.6875 -42.046875 C 21.957031 -42.046875 18.441406 -40.613281 16.140625 -37.75 C 13.847656 -34.894531 12.703125 -30.253906 12.703125 -23.828125 Z M 4.34375 -23.828125 C 4.34375 -40.347656 11.789062 -48.609375 26.6875 -48.609375 C 41.582031 -48.609375 49.03125 -40.347656 49.03125 -23.828125 C 49.03125 -7.304688 41.582031 0.953125 26.6875 0.953125 C 11.789062 0.953125 4.34375 -7.304688 4.34375 -23.828125 Z M 4.34375 -23.828125 "/></g></g></g><g fill="#1e293b" fill-opacity="1"><g transform="translate(262.896174, 468.017618)"><g><path d="M 6.453125 -1.0625 L 6.453125 -40.34375 C 6.453125 -41.476562 6.914062 -42.398438 7.84375 -43.109375 C 8.613281 -43.671875 9.8125 -44.375 11.4375 -45.21875 C 13.0625 -46.070312 15.125 -46.847656 17.625 -47.546875 C 20.132812 -48.253906 23.050781 -48.609375 26.375 -48.609375 C 39.71875 -48.609375 46.390625 -43.28125 46.390625 -32.625 L 46.390625 -1.0625 C 46.390625 -0.351562 46.140625 0.15625 45.640625 0.46875 C 45.148438 0.789062 44.019531 0.953125 42.25 0.953125 C 40.488281 0.953125 39.34375 0.789062 38.8125 0.46875 C 38.28125 0.15625 38.015625 -0.351562 38.015625 -1.0625 L 38.015625 -31.671875 C 38.015625 -35.128906 37.097656 -37.722656 35.265625 -39.453125 C 33.429688 -41.179688 30.394531 -42.046875 26.15625 -42.046875 C 23.820312 -42.046875 21.6875 -41.726562 19.75 -41.09375 C 17.8125 -40.457031 16.171875 -39.785156 14.828125 -39.078125 L 14.828125 -1.0625 C 14.828125 -0.351562 14.578125 0.15625 14.078125 0.46875 C 13.585938 0.789062 12.460938 0.953125 10.703125 0.953125 C 8.929688 0.953125 7.78125 0.789062 7.25 0.46875 C 6.71875 0.15625 6.453125 -0.351562 6.453125 -1.0625 Z M 6.453125 -1.0625 "/></g></g></g><g fill="#1e293b" fill-opacity="1"><g transform="translate(315.743387, 468.017618)"><g><path d="M 12.5 -62.90625 C 14.257812 -62.90625 15.382812 -62.765625 15.875 -62.484375 C 16.375 -62.203125 16.625 -61.671875 16.625 -60.890625 L 16.625 -47.65625 L 26.796875 -47.65625 C 27.359375 -47.65625 27.78125 -47.460938 28.0625 -47.078125 C 28.34375 -46.691406 28.484375 -45.789062 28.484375 -44.375 C 28.484375 -43.03125 28.34375 -42.144531 28.0625 -41.71875 C 27.78125 -41.300781 27.359375 -41.09375 26.796875 -41.09375 L 16.625 -41.09375 L 16.625 -13.65625 C 16.625 -10.832031 17.257812 -8.785156 18.53125 -7.515625 C 19.800781 -6.242188 21.640625 -5.609375 24.046875 -5.609375 C 25.453125 -5.609375 26.6875 -5.820312 27.75 -6.25 C 28.8125 -6.675781 29.90625 -7.238281 31.03125 -7.9375 C 31.3125 -8.082031 31.523438 -8.15625 31.671875 -8.15625 C 32.367188 -8.15625 33.035156 -7.34375 33.671875 -5.71875 C 34.097656 -4.65625 34.3125 -3.878906 34.3125 -3.390625 C 34.3125 -2.890625 33.992188 -2.429688 33.359375 -2.015625 C 32.085938 -1.097656 30.640625 -0.375 29.015625 0.15625 C 27.390625 0.6875 25.378906 0.953125 22.984375 0.953125 C 18.035156 0.953125 14.34375 -0.316406 11.90625 -2.859375 C 9.476562 -5.398438 8.265625 -9.035156 8.265625 -13.765625 L 8.265625 -41.09375 L 2.546875 -41.09375 C 1.972656 -41.09375 1.546875 -41.300781 1.265625 -41.71875 C 0.984375 -42.144531 0.84375 -43.03125 0.84375 -44.375 C 0.84375 -45.789062 0.984375 -46.691406 1.265625 -47.078125 C 1.546875 -47.460938 1.972656 -47.65625 2.546875 -47.65625 L 8.265625 -47.65625 L 8.265625 -60.890625 C 8.265625 -61.671875 8.523438 -62.203125 9.046875 -62.484375 C 9.578125 -62.765625 10.726562 -62.90625 12.5 -62.90625 Z M 12.5 -62.90625 "/></g></g></g><g fill="#1e293b" fill-opacity="1"><g transform="translate(350.692448, 468.017618)"><g><path d="M 6.453125 -1.0625 L 6.453125 -40.5625 C 6.453125 -41.550781 6.84375 -42.363281 7.625 -43 C 8.820312 -43.988281 10.78125 -45.171875 13.5 -46.546875 C 16.21875 -47.921875 19.875 -48.609375 24.46875 -48.609375 C 27.570312 -48.609375 30.375 -48.289062 32.875 -47.65625 C 35.382812 -47.019531 37.488281 -46.101562 39.1875 -44.90625 C 39.75 -44.550781 40.03125 -44.128906 40.03125 -43.640625 C 40.03125 -43.285156 39.75 -42.472656 39.1875 -41.203125 C 38.757812 -40.285156 38.40625 -39.664062 38.125 -39.34375 C 37.84375 -39.03125 37.523438 -38.875 37.171875 -38.875 C 37.097656 -38.875 36.851562 -38.941406 36.4375 -39.078125 C 35.09375 -39.992188 33.414062 -40.71875 31.40625 -41.25 C 29.394531 -41.78125 27.046875 -42.046875 24.359375 -42.046875 C 22.378906 -42.046875 20.59375 -41.867188 19 -41.515625 C 17.414062 -41.160156 16.023438 -40.738281 14.828125 -40.25 L 14.828125 -1.0625 C 14.828125 -0.351562 14.578125 0.15625 14.078125 0.46875 C 13.585938 0.789062 12.460938 0.953125 10.703125 0.953125 C 8.929688 0.953125 7.78125 0.789062 7.25 0.46875 C 6.71875 0.15625 6.453125 -0.351562 6.453125 -1.0625 Z M 6.453125 -1.0625 "/></g></g></g><g fill="#1e293b" fill-opacity="1"><g transform="translate(389.242291, 468.017618)"><g><path d="M 12.703125 -23.828125 C 12.703125 -17.398438 13.847656 -12.753906 16.140625 -9.890625 C 18.441406 -7.035156 21.957031 -5.609375 26.6875 -5.609375 C 31.414062 -5.609375 34.925781 -7.035156 37.21875 -9.890625 C 39.519531 -12.753906 40.671875 -17.398438 40.671875 -23.828125 C 40.671875 -30.253906 39.539062 -34.894531 37.28125 -37.75 C 35.019531 -40.613281 31.488281 -42.046875 26.6875 -42.046875 C 21.957031 -42.046875 18.441406 -40.613281 16.140625 -37.75 C 13.847656 -34.894531 12.703125 -30.253906 12.703125 -23.828125 Z M 4.34375 -23.828125 C 4.34375 -40.347656 11.789062 -48.609375 26.6875 -48.609375 C 41.582031 -48.609375 49.03125 -40.347656 49.03125 -23.828125 C 49.03125 -7.304688 41.582031 0.953125 26.6875 0.953125 C 11.789062 0.953125 4.34375 -7.304688 4.34375 -23.828125 Z M 4.34375 -23.828125 "/></g></g></g><g fill="#1e293b" fill-opacity="1"><g transform="translate(442.513114, 468.017618)"><g><path d="M 6.453125 -1.0625 L 6.453125 -70.421875 C 6.453125 -71.128906 6.71875 -71.640625 7.25 -71.953125 C 7.78125 -72.273438 8.929688 -72.4375 10.703125 -72.4375 C 12.460938 -72.4375 13.585938 -72.273438 14.078125 -71.953125 C 14.578125 -71.640625 14.828125 -71.128906 14.828125 -70.421875 L 14.828125 -1.0625 C 14.828125 -0.351562 14.578125 0.15625 14.078125 0.46875 C 13.585938 0.789062 12.460938 0.953125 10.703125 0.953125 C 8.929688 0.953125 7.78125 0.789062 7.25 0.46875 C 6.71875 0.15625 6.453125 -0.351562 6.453125 -1.0625 Z M 6.453125 -1.0625 "/></g></g></g><g fill="#1e293b" fill-opacity="1"><g transform="translate(463.694366, 468.017618)"><g/></g></g><g fill="#1e293b" fill-opacity="1"><g transform="translate(488.158707, 468.017618)"><g><path d="M 4.34375 -23.828125 C 4.34375 -32.722656 6.265625 -39.078125 10.109375 -42.890625 C 13.960938 -46.703125 19.03125 -48.609375 25.3125 -48.609375 C 28.0625 -48.609375 30.53125 -48.304688 32.71875 -47.703125 C 34.914062 -47.109375 36.789062 -46.390625 38.34375 -45.546875 L 38.34375 -70.421875 C 38.34375 -71.128906 38.585938 -71.640625 39.078125 -71.953125 C 39.578125 -72.273438 40.707031 -72.4375 42.46875 -72.4375 C 44.226562 -72.4375 45.351562 -72.273438 45.84375 -71.953125 C 46.34375 -71.640625 46.59375 -71.128906 46.59375 -70.421875 L 46.59375 -6.984375 C 46.59375 -5.859375 46.171875 -4.976562 45.328125 -4.34375 C 44.691406 -3.84375 43.613281 -3.171875 42.09375 -2.328125 C 40.582031 -1.484375 38.609375 -0.722656 36.171875 -0.046875 C 33.734375 0.617188 30.785156 0.953125 27.328125 0.953125 C 23.015625 0.953125 19.109375 0.140625 15.609375 -1.484375 C 12.117188 -3.109375 9.367188 -5.738281 7.359375 -9.375 C 5.347656 -13.007812 4.34375 -17.828125 4.34375 -23.828125 Z M 38.34375 -8.46875 L 38.34375 -38.125 C 37.070312 -39.113281 35.460938 -40.015625 33.515625 -40.828125 C 31.578125 -41.640625 29.300781 -42.046875 26.6875 -42.046875 C 22.445312 -42.046875 19.054688 -40.703125 16.515625 -38.015625 C 13.972656 -35.335938 12.703125 -30.609375 12.703125 -23.828125 C 12.703125 -17.046875 14.023438 -12.3125 16.671875 -9.625 C 19.328125 -6.945312 22.84375 -5.609375 27.21875 -5.609375 C 29.550781 -5.609375 31.671875 -5.90625 33.578125 -6.5 C 35.484375 -7.101562 37.070312 -7.757812 38.34375 -8.46875 Z M 38.34375 -8.46875 "/></g></g></g><g fill="#1e293b" fill-opacity="1"><g transform="translate(541.217765, 468.017618)"><g><path d="M 25.203125 -48.609375 C 32.335938 -48.609375 37.421875 -46.5625 40.453125 -42.46875 C 43.492188 -38.375 45.015625 -32.441406 45.015625 -24.671875 C 45.015625 -21.921875 43.707031 -20.546875 41.09375 -20.546875 L 12.8125 -20.546875 C 13.238281 -15.179688 14.722656 -11.332031 17.265625 -9 C 19.804688 -6.664062 23.441406 -5.5 28.171875 -5.5 C 30.566406 -5.5 32.628906 -5.800781 34.359375 -6.40625 C 36.097656 -7.007812 37.882812 -7.804688 39.71875 -8.796875 C 40.070312 -9.003906 40.351562 -9.109375 40.5625 -9.109375 C 41.195312 -9.109375 41.867188 -8.332031 42.578125 -6.78125 C 43.066406 -5.789062 43.3125 -5.015625 43.3125 -4.453125 C 43.3125 -3.878906 43.066406 -3.453125 42.578125 -3.171875 C 40.242188 -1.835938 37.945312 -0.816406 35.6875 -0.109375 C 33.425781 0.597656 30.425781 0.953125 26.6875 0.953125 C 11.789062 0.953125 4.34375 -7.304688 4.34375 -23.828125 C 4.34375 -32.085938 6.050781 -38.28125 9.46875 -42.40625 C 12.894531 -46.539062 18.140625 -48.609375 25.203125 -48.609375 Z M 37.390625 -26.796875 C 37.109375 -32.304688 36.03125 -36.242188 34.15625 -38.609375 C 32.28125 -40.972656 29.332031 -42.15625 25.3125 -42.15625 C 21.289062 -42.15625 18.253906 -40.914062 16.203125 -38.4375 C 14.148438 -35.96875 12.984375 -32.085938 12.703125 -26.796875 Z M 37.390625 -26.796875 "/></g></g></g><g fill="#1e293b" fill-opacity="1"><g transform="translate(590.464139, 468.017618)"><g/></g></g><g fill="#1e293b" fill-opacity="1"><g transform="translate(614.92848, 468.017618)"><g><path d="M 23.09375 -72.4375 C 25.5625 -72.4375 27.585938 -72.132812 29.171875 -71.53125 C 30.765625 -70.9375 32.160156 -70.25 33.359375 -69.46875 C 33.992188 -69.113281 34.3125 -68.617188 34.3125 -67.984375 C 34.3125 -67.703125 34.273438 -67.382812 34.203125 -67.03125 C 34.140625 -66.6875 34 -66.265625 33.78125 -65.765625 C 33.144531 -64.140625 32.507812 -63.328125 31.875 -63.328125 C 31.664062 -63.328125 31.421875 -63.398438 31.140625 -63.546875 C 30.003906 -64.316406 28.90625 -64.894531 27.84375 -65.28125 C 26.789062 -65.675781 25.554688 -65.875 24.140625 -65.875 C 21.742188 -65.875 19.910156 -65.238281 18.640625 -63.96875 C 17.367188 -62.695312 16.734375 -60.648438 16.734375 -57.828125 L 16.734375 -47.65625 L 26.796875 -47.65625 C 27.359375 -47.65625 27.78125 -47.460938 28.0625 -47.078125 C 28.34375 -46.691406 28.484375 -45.789062 28.484375 -44.375 C 28.484375 -43.03125 28.34375 -42.144531 28.0625 -41.71875 C 27.78125 -41.300781 27.359375 -41.09375 26.796875 -41.09375 L 16.734375 -41.09375 L 16.734375 -1.0625 C 16.734375 -0.351562 16.484375 0.15625 15.984375 0.46875 C 15.492188 0.789062 14.367188 0.953125 12.609375 0.953125 C 10.835938 0.953125 9.6875 0.789062 9.15625 0.46875 C 8.625 0.15625 8.359375 -0.351562 8.359375 -1.0625 L 8.359375 -41.09375 L 2.640625 -41.09375 C 2.078125 -41.09375 1.65625 -41.300781 1.375 -41.71875 C 1.09375 -42.144531 0.953125 -43.03125 0.953125 -44.375 C 0.953125 -45.789062 1.09375 -46.691406 1.375 -47.078125 C 1.65625 -47.460938 2.078125 -47.65625 2.640625 -47.65625 L 8.359375 -47.65625 L 8.359375 -57.71875 C 8.359375 -62.445312 9.578125 -66.082031 12.015625 -68.625 C 14.453125 -71.164062 18.144531 -72.4375 23.09375 -72.4375 Z M 23.09375 -72.4375 "/></g></g></g><g fill="#1e293b" fill-opacity="1"><g transform="translate(649.983447, 468.017618)"><g><path d="M 6.453125 -1.0625 L 6.453125 -70.421875 C 6.453125 -71.128906 6.71875 -71.640625 7.25 -71.953125 C 7.78125 -72.273438 8.929688 -72.4375 10.703125 -72.4375 C 12.460938 -72.4375 13.585938 -72.273438 14.078125 -71.953125 C 14.578125 -71.640625 14.828125 -71.128906 14.828125 -70.421875 L 14.828125 -1.0625 C 14.828125 -0.351562 14.578125 0.15625 14.078125 0.46875 C 13.585938 0.789062 12.460938 0.953125 10.703125 0.953125 C 8.929688 0.953125 7.78125 0.789062 7.25 0.46875 C 6.71875 0.15625 6.453125 -0.351562 6.453125 -1.0625 Z M 6.453125 -1.0625 "/></g></g></g><g fill="#1e293b" fill-opacity="1"><g transform="translate(671.164699, 468.017618)"><g><path d="M 6.453125 -15.03125 L 6.453125 -46.59375 C 6.453125 -47.300781 6.695312 -47.8125 7.1875 -48.125 C 7.6875 -48.445312 8.820312 -48.609375 10.59375 -48.609375 C 12.351562 -48.609375 13.5 -48.445312 14.03125 -48.125 C 14.5625 -47.8125 14.828125 -47.300781 14.828125 -46.59375 L 14.828125 -15.984375 C 14.828125 -12.523438 15.757812 -9.929688 17.625 -8.203125 C 19.5 -6.472656 22.554688 -5.609375 26.796875 -5.609375 C 29.054688 -5.609375 31.15625 -5.90625 33.09375 -6.5 C 35.039062 -7.101562 36.679688 -7.757812 38.015625 -8.46875 L 38.015625 -46.59375 C 38.015625 -47.300781 38.28125 -47.8125 38.8125 -48.125 C 39.34375 -48.445312 40.488281 -48.609375 42.25 -48.609375 C 44.019531 -48.609375 45.148438 -48.445312 45.640625 -48.125 C 46.140625 -47.8125 46.390625 -47.300781 46.390625 -46.59375 L 46.390625 -7.3125 C 46.390625 -6.175781 45.929688 -5.253906 45.015625 -4.546875 C 44.304688 -4.054688 43.117188 -3.367188 41.453125 -2.484375 C 39.796875 -1.609375 37.734375 -0.816406 35.265625 -0.109375 C 32.796875 0.597656 29.863281 0.953125 26.46875 0.953125 C 13.125 0.953125 6.453125 -4.375 6.453125 -15.03125 Z M 6.453125 -15.03125 "/></g></g></g><g fill="#1e293b" fill-opacity="1"><g transform="translate(724.0119, 468.017618)"><g><path d="M 10.0625 -71.796875 C 12.175781 -71.796875 13.550781 -71.65625 14.1875 -71.375 C 14.820312 -71.09375 15.140625 -70.566406 15.140625 -69.796875 L 15.140625 -64.390625 C 15.140625 -63.679688 14.820312 -63.164062 14.1875 -62.84375 C 13.550781 -62.53125 12.175781 -62.375 10.0625 -62.375 C 7.945312 -62.375 6.570312 -62.53125 5.9375 -62.84375 C 5.300781 -63.164062 4.984375 -63.679688 4.984375 -64.390625 L 4.984375 -69.796875 C 4.984375 -70.566406 5.300781 -71.09375 5.9375 -71.375 C 6.570312 -71.65625 7.945312 -71.796875 10.0625 -71.796875 Z M 10.0625 -48.609375 C 11.820312 -48.609375 12.945312 -48.445312 13.4375 -48.125 C 13.9375 -47.8125 14.1875 -47.300781 14.1875 -46.59375 L 14.1875 6.984375 C 14.1875 12.492188 12.863281 16.445312 10.21875 18.84375 C 7.570312 21.25 3.601562 22.453125 -1.6875 22.453125 C -2.1875 22.453125 -2.59375 22.238281 -2.90625 21.8125 C -3.226562 21.394531 -3.390625 20.515625 -3.390625 19.171875 C -3.390625 17.753906 -3.25 16.851562 -2.96875 16.46875 C -2.6875 16.082031 -2.296875 15.890625 -1.796875 15.890625 C 0.671875 15.890625 2.578125 15.285156 3.921875 14.078125 C 5.265625 12.878906 5.9375 10.832031 5.9375 7.9375 L 5.9375 -46.59375 C 5.9375 -47.300781 6.179688 -47.8125 6.671875 -48.125 C 7.160156 -48.445312 8.289062 -48.609375 10.0625 -48.609375 Z M 10.0625 -48.609375 "/></g></g></g><g fill="#1e293b" fill-opacity="1"><g transform="translate(744.028217, 468.017618)"><g><path d="M 12.703125 -23.828125 C 12.703125 -17.398438 13.847656 -12.753906 16.140625 -9.890625 C 18.441406 -7.035156 21.957031 -5.609375 26.6875 -5.609375 C 31.414062 -5.609375 34.925781 -7.035156 37.21875 -9.890625 C 39.519531 -12.753906 40.671875 -17.398438 40.671875 -23.828125 C 40.671875 -30.253906 39.539062 -34.894531 37.28125 -37.75 C 35.019531 -40.613281 31.488281 -42.046875 26.6875 -42.046875 C 21.957031 -42.046875 18.441406 -40.613281 16.140625 -37.75 C 13.847656 -34.894531 12.703125 -30.253906 12.703125 -23.828125 Z M 4.34375 -23.828125 C 4.34375 -40.347656 11.789062 -48.609375 26.6875 -48.609375 C 41.582031 -48.609375 49.03125 -40.347656 49.03125 -23.828125 C 49.03125 -7.304688 41.582031 0.953125 26.6875 0.953125 C 11.789062 0.953125 4.34375 -7.304688 4.34375 -23.828125 Z M 4.34375 -23.828125 "/></g></g></g><g fill="#1e293b" fill-opacity="1"><g transform="translate(797.29904, 468.017618)"><g/></g></g><g fill="#1e293b" fill-opacity="1"><g transform="translate(821.763381, 468.017618)"><g><path d="M 4.34375 -23.828125 C 4.34375 -32.722656 6.265625 -39.078125 10.109375 -42.890625 C 13.960938 -46.703125 19.03125 -48.609375 25.3125 -48.609375 C 28.0625 -48.609375 30.53125 -48.304688 32.71875 -47.703125 C 34.914062 -47.109375 36.789062 -46.390625 38.34375 -45.546875 L 38.34375 -70.421875 C 38.34375 -71.128906 38.585938 -71.640625 39.078125 -71.953125 C 39.578125 -72.273438 40.707031 -72.4375 42.46875 -72.4375 C 44.226562 -72.4375 45.351562 -72.273438 45.84375 -71.953125 C 46.34375 -71.640625 46.59375 -71.128906 46.59375 -70.421875 L 46.59375 -6.984375 C 46.59375 -5.859375 46.171875 -4.976562 45.328125 -4.34375 C 44.691406 -3.84375 43.613281 -3.171875 42.09375 -2.328125 C 40.582031 -1.484375 38.609375 -0.722656 36.171875 -0.046875 C 33.734375 0.617188 30.785156 0.953125 27.328125 0.953125 C 23.015625 0.953125 19.109375 0.140625 15.609375 -1.484375 C 12.117188 -3.109375 9.367188 -5.738281 7.359375 -9.375 C 5.347656 -13.007812 4.34375 -17.828125 4.34375 -23.828125 Z M 38.34375 -8.46875 L 38.34375 -38.125 C 37.070312 -39.113281 35.460938 -40.015625 33.515625 -40.828125 C 31.578125 -41.640625 29.300781 -42.046875 26.6875 -42.046875 C 22.445312 -42.046875 19.054688 -40.703125 16.515625 -38.015625 C 13.972656 -35.335938 12.703125 -30.609375 12.703125 -23.828125 C 12.703125 -17.046875 14.023438 -12.3125 16.671875 -9.625 C 19.328125 -6.945312 22.84375 -5.609375 27.21875 -5.609375 C 29.550781 -5.609375 31.671875 -5.90625 33.578125 -6.5 C 35.484375 -7.101562 37.070312 -7.757812 38.34375 -8.46875 Z M 38.34375 -8.46875 "/></g></g></g><g fill="#1e293b" fill-opacity="1"><g transform="translate(874.822393, 468.017618)"><g><path d="M 25.203125 -48.609375 C 32.335938 -48.609375 37.421875 -46.5625 40.453125 -42.46875 C 43.492188 -38.375 45.015625 -32.441406 45.015625 -24.671875 C 45.015625 -21.921875 43.707031 -20.546875 41.09375 -20.546875 L 12.8125 -20.546875 C 13.238281 -15.179688 14.722656 -11.332031 17.265625 -9 C 19.804688 -6.664062 23.441406 -5.5 28.171875 -5.5 C 30.566406 -5.5 32.628906 -5.800781 34.359375 -6.40625 C 36.097656 -7.007812 37.882812 -7.804688 39.71875 -8.796875 C 40.070312 -9.003906 40.351562 -9.109375 40.5625 -9.109375 C 41.195312 -9.109375 41.867188 -8.332031 42.578125 -6.78125 C 43.066406 -5.789062 43.3125 -5.015625 43.3125 -4.453125 C 43.3125 -3.878906 43.066406 -3.453125 42.578125 -3.171875 C 40.242188 -1.835938 37.945312 -0.816406 35.6875 -0.109375 C 33.425781 0.597656 30.425781 0.953125 26.6875 0.953125 C 11.789062 0.953125 4.34375 -7.304688 4.34375 -23.828125 C 4.34375 -32.085938 6.050781 -38.28125 9.46875 -42.40625 C 12.894531 -46.539062 18.140625 -48.609375 25.203125 -48.609375 Z M 37.390625 -26.796875 C 37.109375 -32.304688 36.03125 -36.242188 34.15625 -38.609375 C 32.28125 -40.972656 29.332031 -42.15625 25.3125 -42.15625 C 21.289062 -42.15625 18.253906 -40.914062 16.203125 -38.4375 C 14.148438 -35.96875 12.984375 -32.085938 12.703125 -26.796875 Z M 37.390625 -26.796875 "/></g></g></g><g fill="#1e293b" fill-opacity="1"><g transform="translate(924.068767, 468.017618)"><g/></g></g><g fill="#1e293b" fill-opacity="1"><g transform="translate(948.533154, 468.017618)"><g><path d="M 26.46875 -48.609375 C 30.425781 -48.609375 33.640625 -48.238281 36.109375 -47.5 C 38.585938 -46.757812 40.882812 -45.71875 43 -44.375 C 43.5625 -44.019531 43.84375 -43.597656 43.84375 -43.109375 C 43.84375 -42.609375 43.5625 -41.796875 43 -40.671875 C 42.21875 -39.046875 41.507812 -38.234375 40.875 -38.234375 C 40.59375 -38.234375 40.347656 -38.335938 40.140625 -38.546875 C 38.367188 -39.679688 36.457031 -40.546875 34.40625 -41.140625 C 32.363281 -41.742188 30.003906 -42.046875 27.328125 -42.046875 C 22.597656 -42.046875 18.976562 -40.578125 16.46875 -37.640625 C 13.957031 -34.710938 12.703125 -30.109375 12.703125 -23.828125 C 12.703125 -17.546875 13.957031 -12.9375 16.46875 -10 C 18.976562 -7.070312 22.597656 -5.609375 27.328125 -5.609375 C 30.003906 -5.609375 32.363281 -5.90625 34.40625 -6.5 C 36.457031 -7.101562 38.367188 -7.972656 40.140625 -9.109375 C 40.347656 -9.316406 40.59375 -9.421875 40.875 -9.421875 C 41.507812 -9.421875 42.21875 -8.609375 43 -6.984375 C 43.5625 -5.859375 43.84375 -5.046875 43.84375 -4.546875 C 43.84375 -4.054688 43.5625 -3.632812 43 -3.28125 C 40.882812 -1.9375 38.585938 -0.894531 36.109375 -0.15625 C 33.640625 0.582031 30.425781 0.953125 26.46875 0.953125 C 19.195312 0.953125 13.691406 -1.09375 9.953125 -5.1875 C 6.210938 -9.28125 4.34375 -15.492188 4.34375 -23.828125 C 4.34375 -32.160156 6.210938 -38.375 9.953125 -42.46875 C 13.691406 -46.5625 19.195312 -48.609375 26.46875 -48.609375 Z M 26.46875 -48.609375 "/></g></g></g><g fill="#1e293b" fill-opacity="1"><g transform="translate(995.555493, 468.017618)"><g><path d="M 25.203125 -48.609375 C 37.910156 -48.609375 44.265625 -43.703125 44.265625 -33.890625 L 44.265625 -1.0625 C 44.265625 -0.351562 44.050781 0.15625 43.625 0.46875 C 43.207031 0.789062 42.398438 0.953125 41.203125 0.953125 C 39.222656 0.953125 38.019531 0.316406 37.59375 -0.953125 L 36.640625 -5.828125 C 35.160156 -4.273438 33.0625 -2.753906 30.34375 -1.265625 C 27.625 0.210938 24.078125 0.953125 19.703125 0.953125 C 14.972656 0.953125 11.226562 -0.265625 8.46875 -2.703125 C 5.71875 -5.140625 4.34375 -8.789062 4.34375 -13.65625 C 4.34375 -18.457031 5.910156 -22.21875 9.046875 -24.9375 C 12.191406 -27.65625 17.191406 -29.015625 24.046875 -29.015625 C 26.515625 -29.015625 28.734375 -28.835938 30.703125 -28.484375 C 32.679688 -28.128906 34.414062 -27.742188 35.90625 -27.328125 L 35.90625 -32.828125 C 35.90625 -39.046875 31.878906 -42.15625 23.828125 -42.15625 C 19.453125 -42.15625 15.25 -40.953125 11.21875 -38.546875 C 10.800781 -38.410156 10.554688 -38.34375 10.484375 -38.34375 C 9.847656 -38.34375 9.210938 -39.082031 8.578125 -40.5625 C 8.015625 -41.832031 7.734375 -42.644531 7.734375 -43 C 7.734375 -43.425781 8.015625 -43.8125 8.578125 -44.15625 C 11.046875 -45.644531 13.53125 -46.757812 16.03125 -47.5 C 18.539062 -48.238281 21.597656 -48.609375 25.203125 -48.609375 Z M 35.90625 -11.65625 L 35.90625 -21.390625 C 34.632812 -21.816406 33.0625 -22.222656 31.1875 -22.609375 C 29.320312 -22.992188 27.148438 -23.1875 24.671875 -23.1875 C 16.691406 -23.1875 12.703125 -20.222656 12.703125 -14.296875 C 12.703125 -11.117188 13.601562 -8.84375 15.40625 -7.46875 C 17.207031 -6.09375 19.625 -5.40625 22.65625 -5.40625 C 26.1875 -5.40625 29.007812 -6.109375 31.125 -7.515625 C 33.25 -8.929688 34.84375 -10.3125 35.90625 -11.65625 Z M 35.90625 -11.65625 "/></g></g></g><g fill="#1e293b" fill-opacity="1"><g transform="translate(1046.17866, 468.017618)"><g><path d="M 10.0625 -71.796875 C 12.175781 -71.796875 13.550781 -71.65625 14.1875 -71.375 C 14.820312 -71.09375 15.140625 -70.566406 15.140625 -69.796875 L 15.140625 -64.390625 C 15.140625 -63.679688 14.820312 -63.164062 14.1875 -62.84375 C 13.550781 -62.53125 12.175781 -62.375 10.0625 -62.375 C 7.945312 -62.375 6.570312 -62.53125 5.9375 -62.84375 C 5.300781 -63.164062 4.984375 -63.679688 4.984375 -64.390625 L 4.984375 -69.796875 C 4.984375 -70.566406 5.300781 -71.09375 5.9375 -71.375 C 6.570312 -71.65625 7.945312 -71.796875 10.0625 -71.796875 Z M 10.0625 -48.609375 C 11.820312 -48.609375 12.945312 -48.445312 13.4375 -48.125 C 13.9375 -47.8125 14.1875 -47.300781 14.1875 -46.59375 L 14.1875 6.984375 C 14.1875 12.492188 12.863281 16.445312 10.21875 18.84375 C 7.570312 21.25 3.601562 22.453125 -1.6875 22.453125 C -2.1875 22.453125 -2.59375 22.238281 -2.90625 21.8125 C -3.226562 21.394531 -3.390625 20.515625 -3.390625 19.171875 C -3.390625 17.753906 -3.25 16.851562 -2.96875 16.46875 C -2.6875 16.082031 -2.296875 15.890625 -1.796875 15.890625 C 0.671875 15.890625 2.578125 15.285156 3.921875 14.078125 C 5.265625 12.878906 5.9375 10.832031 5.9375 7.9375 L 5.9375 -46.59375 C 5.9375 -47.300781 6.179688 -47.8125 6.671875 -48.125 C 7.160156 -48.445312 8.289062 -48.609375 10.0625 -48.609375 Z M 10.0625 -48.609375 "/></g></g></g><g fill="#1e293b" fill-opacity="1"><g transform="translate(1066.194977, 468.017618)"><g><path d="M 25.203125 -48.609375 C 37.910156 -48.609375 44.265625 -43.703125 44.265625 -33.890625 L 44.265625 -1.0625 C 44.265625 -0.351562 44.050781 0.15625 43.625 0.46875 C 43.207031 0.789062 42.398438 0.953125 41.203125 0.953125 C 39.222656 0.953125 38.019531 0.316406 37.59375 -0.953125 L 36.640625 -5.828125 C 35.160156 -4.273438 33.0625 -2.753906 30.34375 -1.265625 C 27.625 0.210938 24.078125 0.953125 19.703125 0.953125 C 14.972656 0.953125 11.226562 -0.265625 8.46875 -2.703125 C 5.71875 -5.140625 4.34375 -8.789062 4.34375 -13.65625 C 4.34375 -18.457031 5.910156 -22.21875 9.046875 -24.9375 C 12.191406 -27.65625 17.191406 -29.015625 24.046875 -29.015625 C 26.515625 -29.015625 28.734375 -28.835938 30.703125 -28.484375 C 32.679688 -28.128906 34.414062 -27.742188 35.90625 -27.328125 L 35.90625 -32.828125 C 35.90625 -39.046875 31.878906 -42.15625 23.828125 -42.15625 C 19.453125 -42.15625 15.25 -40.953125 11.21875 -38.546875 C 10.800781 -38.410156 10.554688 -38.34375 10.484375 -38.34375 C 9.847656 -38.34375 9.210938 -39.082031 8.578125 -40.5625 C 8.015625 -41.832031 7.734375 -42.644531 7.734375 -43 C 7.734375 -43.425781 8.015625 -43.8125 8.578125 -44.15625 C 11.046875 -45.644531 13.53125 -46.757812 16.03125 -47.5 C 18.539062 -48.238281 21.597656 -48.609375 25.203125 -48.609375 Z M 35.90625 -11.65625 L 35.90625 -21.390625 C 34.632812 -21.816406 33.0625 -22.222656 31.1875 -22.609375 C 29.320312 -22.992188 27.148438 -23.1875 24.671875 -23.1875 C 16.691406 -23.1875 12.703125 -20.222656 12.703125 -14.296875 C 12.703125 -11.117188 13.601562 -8.84375 15.40625 -7.46875 C 17.207031 -6.09375 19.625 -5.40625 22.65625 -5.40625 C 26.1875 -5.40625 29.007812 -6.109375 31.125 -7.515625 C 33.25 -8.929688 34.84375 -10.3125 35.90625 -11.65625 Z M 35.90625 -11.65625 "/></g></g></g><g clip-path="url(#a92c04a3ce)"><path stroke-linecap="butt" transform="matrix(0.749364, 0.000830698, -0.000830698, 0.749364, 151.696325, 357.131803)" fill="none" stroke-linejoin="miter" d="M 0.000863423 1.997832 L 1804.176872 1.999532 " stroke="#1e293b" stroke-width="4" stroke-opacity="1" stroke-miterlimit="4"/></g></svg>