<svg xmlns="http://www.w3.org/2000/svg" xmlns:xlink="http://www.w3.org/1999/xlink" width="1805" zoomAndPan="magnify" viewBox="0 0 1353.75 1051.499973" height="1402" preserveAspectRatio="xMidYMid meet" version="1.0"><defs><g/><clipPath id="bc46a7a19b"><path d="M 0.195312 190.296875 L 1352.683594 190.296875 L 1352.683594 1050.644531 L 0.195312 1050.644531 Z M 0.195312 190.296875 " clip-rule="nonzero"/></clipPath><clipPath id="b1cc0d9d63"><path d="M 1352.683594 260.761719 L 1352.683594 980.175781 C 1352.683594 1019.09375 1321.132812 1050.644531 1282.21875 1050.644531 L 70.660156 1050.644531 C 31.742188 1050.644531 0.195312 1019.09375 0.195312 980.175781 L 0.195312 260.761719 C 0.195312 221.84375 31.742188 190.296875 70.660156 190.296875 L 1282.21875 190.296875 C 1321.132812 190.296875 1352.683594 221.84375 1352.683594 260.761719 Z M 1352.683594 260.761719 " clip-rule="nonzero"/></clipPath><clipPath id="1b07c8db36"><path d="M 1 0.296875 L 1352.683594 0.296875 L 1352.683594 860.644531 L 1 860.644531 Z M 1 0.296875 " clip-rule="nonzero"/></clipPath><clipPath id="c52045f29f"><path d="M 1352.683594 70.761719 L 1352.683594 790.175781 C 1352.683594 829.09375 1321.132812 860.644531 1282.21875 860.644531 L 70.660156 860.644531 C 31.742188 860.644531 0.195312 829.09375 0.195312 790.175781 L 0.195312 70.761719 C 0.195312 31.84375 31.742188 0.296875 70.660156 0.296875 L 1282.21875 0.296875 C 1321.132812 0.296875 1352.683594 31.84375 1352.683594 70.761719 Z M 1352.683594 70.761719 " clip-rule="nonzero"/></clipPath><clipPath id="3bddcdf329"><rect x="0" width="1353" y="0" height="861"/></clipPath><clipPath id="93af8eb54e"><path d="M 13 213.800781 L 1335.054688 213.800781 L 1335.054688 1013.046875 L 13 1013.046875 Z M 13 213.800781 " clip-rule="nonzero"/></clipPath><clipPath id="fcd9e1eb5d"><path d="M 1335.054688 284.269531 L 1335.054688 942.582031 C 1335.054688 981.5 1303.507812 1013.046875 1264.589844 1013.046875 L 83.582031 1013.046875 C 44.664062 1013.046875 13.117188 981.5 13.117188 942.582031 L 13.117188 284.269531 C 13.117188 245.351562 44.664062 213.800781 83.582031 213.800781 L 1264.589844 213.800781 C 1303.507812 213.800781 1335.054688 245.351562 1335.054688 284.269531 Z M 1335.054688 284.269531 " clip-rule="nonzero"/></clipPath><clipPath id="5dc99464f9"><path d="M 1 0.800781 L 1322.054688 0.800781 L 1322.054688 800.046875 L 1 800.046875 Z M 1 0.800781 " clip-rule="nonzero"/></clipPath><clipPath id="0797cf0c36"><path d="M 1322.054688 71.269531 L 1322.054688 729.582031 C 1322.054688 768.5 1290.507812 800.046875 1251.589844 800.046875 L 70.582031 800.046875 C 31.664062 800.046875 0.117188 768.5 0.117188 729.582031 L 0.117188 71.269531 C 0.117188 32.351562 31.664062 0.800781 70.582031 0.800781 L 1251.589844 0.800781 C 1290.507812 0.800781 1322.054688 32.351562 1322.054688 71.269531 Z M 1322.054688 71.269531 " clip-rule="nonzero"/></clipPath><clipPath id="c9512cb882"><rect x="0" width="1323" y="0" height="801"/></clipPath><clipPath id="9ff7260945"><path d="M 13 406.261719 L 1335.058594 406.261719 L 1335.058594 947.238281 L 13 947.238281 Z M 13 406.261719 " clip-rule="nonzero"/></clipPath><clipPath id="64a03528a9"><path d="M 13.121094 904.5625 L 13.121094 442.484375 C 13.121094 432.226562 17.519531 422.464844 25.203125 415.671875 C 32.886719 408.875 43.117188 405.707031 53.296875 406.960938 L 633.914062 478.632812 C 660.597656 481.925781 687.582031 481.925781 714.265625 478.632812 L 1294.882812 406.960938 C 1305.0625 405.707031 1315.292969 408.875 1322.976562 415.671875 C 1330.660156 422.464844 1335.058594 432.226562 1335.058594 442.484375 L 1335.058594 905.238281 C 1335.058594 928.410156 1255.742188 947.238281 1163.207031 947.238281 L 184.972656 947.238281 C 92.4375 947.238281 13.121094 929.453125 13.121094 903.890625 Z M 13.121094 904.5625 " clip-rule="nonzero"/></clipPath><clipPath id="082f089463"><path d="M 0 0.261719 L 1322.058594 0.261719 L 1322.058594 541.238281 L 0 541.238281 Z M 0 0.261719 " clip-rule="nonzero"/></clipPath><clipPath id="9710a30bbe"><path d="M 0.121094 498.5625 L 0.121094 36.484375 C 0.121094 26.226562 4.519531 16.464844 12.203125 9.671875 C 19.886719 2.875 30.117188 -0.292969 40.296875 0.960938 L 620.914062 72.632812 C 647.597656 75.925781 674.582031 75.925781 701.265625 72.632812 L 1281.882812 0.960938 C 1292.0625 -0.292969 1302.292969 2.875 1309.976562 9.671875 C 1317.660156 16.464844 1322.058594 26.226562 1322.058594 36.484375 L 1322.058594 499.238281 C 1322.058594 522.410156 1242.742188 541.238281 1150.207031 541.238281 L 171.972656 541.238281 C 79.4375 541.238281 0.121094 523.453125 0.121094 497.890625 Z M 0.121094 498.5625 " clip-rule="nonzero"/></clipPath><clipPath id="b58dbf364b"><rect x="0" width="1323" y="0" height="542"/></clipPath><clipPath id="6d37c4b538"><path d="M 335.8125 0 L 1012.371094 0 L 1012.371094 676.558594 L 335.8125 676.558594 Z M 335.8125 0 " clip-rule="nonzero"/></clipPath><clipPath id="641c9b626f"><path d="M 674.089844 0 C 487.265625 0 335.8125 151.453125 335.8125 338.28125 C 335.8125 525.105469 487.265625 676.558594 674.089844 676.558594 C 860.917969 676.558594 1012.371094 525.105469 1012.371094 338.28125 C 1012.371094 151.453125 860.917969 0 674.089844 0 Z M 674.089844 0 " clip-rule="nonzero"/></clipPath><clipPath id="cb6d3c892e"><path d="M 0.8125 0 L 677.371094 0 L 677.371094 676.558594 L 0.8125 676.558594 Z M 0.8125 0 " clip-rule="nonzero"/></clipPath><clipPath id="608e04012d"><path d="M 339.089844 0 C 152.265625 0 0.8125 151.453125 0.8125 338.28125 C 0.8125 525.105469 152.265625 676.558594 339.089844 676.558594 C 525.917969 676.558594 677.371094 525.105469 677.371094 338.28125 C 677.371094 151.453125 525.917969 0 339.089844 0 Z M 339.089844 0 " clip-rule="nonzero"/></clipPath><clipPath id="d42123a7c7"><rect x="0" width="678" y="0" height="677"/></clipPath><clipPath id="fe9f55cdc9"><path d="M 359.3125 23.5 L 988.871094 23.5 L 988.871094 653.058594 L 359.3125 653.058594 Z M 359.3125 23.5 " clip-rule="nonzero"/></clipPath><clipPath id="f99172d254"><path d="M 674.089844 23.5 C 500.242188 23.5 359.3125 164.429688 359.3125 338.28125 C 359.3125 512.128906 500.242188 653.058594 674.089844 653.058594 C 847.941406 653.058594 988.871094 512.128906 988.871094 338.28125 C 988.871094 164.429688 847.941406 23.5 674.089844 23.5 Z M 674.089844 23.5 " clip-rule="nonzero"/></clipPath><clipPath id="e60dbb8ee9"><path d="M 0.3125 0.5 L 629.871094 0.5 L 629.871094 630.058594 L 0.3125 630.058594 Z M 0.3125 0.5 " clip-rule="nonzero"/></clipPath><clipPath id="70eeecadcc"><path d="M 315.089844 0.5 C 141.242188 0.5 0.3125 141.429688 0.3125 315.28125 C 0.3125 489.128906 141.242188 630.058594 315.089844 630.058594 C 488.941406 630.058594 629.871094 489.128906 629.871094 315.28125 C 629.871094 141.429688 488.941406 0.5 315.089844 0.5 Z M 315.089844 0.5 " clip-rule="nonzero"/></clipPath><clipPath id="9957ed5043"><rect x="0" width="630" y="0" height="631"/></clipPath><clipPath id="398866fbaa"><path d="M 13 688.738281 L 1335.058594 688.738281 L 1335.058594 1029.742188 L 13 1029.742188 Z M 13 688.738281 " clip-rule="nonzero"/></clipPath><clipPath id="cd34997a30"><path d="M 1335.058594 759.207031 L 1335.058594 959.273438 C 1335.058594 998.191406 1303.507812 1029.742188 1264.589844 1029.742188 L 83.582031 1029.742188 C 44.664062 1029.742188 13.117188 998.191406 13.117188 959.273438 L 13.117188 759.207031 C 13.117188 720.289062 44.664062 688.738281 83.582031 688.738281 L 1264.589844 688.738281 C 1303.507812 688.738281 1335.058594 720.289062 1335.058594 759.207031 Z M 1335.058594 759.207031 " clip-rule="nonzero"/></clipPath><clipPath id="e415da8f70"><path d="M 0 0.738281 L 1322.058594 0.738281 L 1322.058594 341.742188 L 0 341.742188 Z M 0 0.738281 " clip-rule="nonzero"/></clipPath><clipPath id="f9994b3294"><path d="M 1322.058594 71.207031 L 1322.058594 271.273438 C 1322.058594 310.191406 1290.507812 341.742188 1251.589844 341.742188 L 70.582031 341.742188 C 31.664062 341.742188 0.117188 310.191406 0.117188 271.273438 L 0.117188 71.207031 C 0.117188 32.289062 31.664062 0.738281 70.582031 0.738281 L 1251.589844 0.738281 C 1290.507812 0.738281 1322.058594 32.289062 1322.058594 71.207031 Z M 1322.058594 71.207031 " clip-rule="nonzero"/></clipPath><clipPath id="39394d71fa"><rect x="0" width="1323" y="0" height="342"/></clipPath></defs><g clip-path="url(#bc46a7a19b)"><g clip-path="url(#b1cc0d9d63)"><g transform="matrix(1, 0, 0, 1, 0, 190)"><g clip-path="url(#3bddcdf329)"><g clip-path="url(#1b07c8db36)"><g clip-path="url(#c52045f29f)"><path fill="#ffffff" d="M 1352.683594 0.296875 L 1352.683594 860.644531 L 1.671875 860.644531 L 1.671875 0.296875 Z M 1352.683594 0.296875 " fill-opacity="1" fill-rule="nonzero"/></g></g></g></g></g></g><g clip-path="url(#93af8eb54e)"><g clip-path="url(#fcd9e1eb5d)"><g transform="matrix(1, 0, 0, 1, 13, 213)"><g clip-path="url(#c9512cb882)"><g clip-path="url(#5dc99464f9)"><g clip-path="url(#0797cf0c36)"><path fill="#1e293b" d="M 1322.054688 0.800781 L 1322.054688 800.046875 L 1.425781 800.046875 L 1.425781 0.800781 Z M 1322.054688 0.800781 " fill-opacity="1" fill-rule="nonzero"/></g></g></g></g></g></g><g clip-path="url(#9ff7260945)"><g clip-path="url(#64a03528a9)"><g transform="matrix(1, 0, 0, 1, 13, 406)"><g clip-path="url(#b58dbf364b)"><g clip-path="url(#082f089463)"><g clip-path="url(#9710a30bbe)"><path fill="#0d9488" d="M 1322.058594 541.238281 L -0.558594 541.238281 L -0.558594 -3.996094 L 1322.058594 -3.996094 Z M 1322.058594 541.238281 " fill-opacity="1" fill-rule="nonzero"/></g></g></g></g></g></g><g clip-path="url(#6d37c4b538)"><g clip-path="url(#641c9b626f)"><g transform="matrix(1, 0, 0, 1, 335, 0)"><g clip-path="url(#d42123a7c7)"><g clip-path="url(#cb6d3c892e)"><g clip-path="url(#608e04012d)"><path fill="#ffffff" d="M 0.8125 0 L 677.371094 0 L 677.371094 676.558594 L 0.8125 676.558594 Z M 0.8125 0 " fill-opacity="1" fill-rule="nonzero"/></g></g></g></g></g></g><g clip-path="url(#fe9f55cdc9)"><g clip-path="url(#f99172d254)"><g transform="matrix(1, 0, 0, 1, 359, 23)"><g clip-path="url(#9957ed5043)"><g clip-path="url(#e60dbb8ee9)"><g clip-path="url(#70eeecadcc)"><path fill="#f59e0b" d="M 0.3125 0.5 L 629.871094 0.5 L 629.871094 630.058594 L 0.3125 630.058594 Z M 0.3125 0.5 " fill-opacity="1" fill-rule="nonzero"/></g></g></g></g></g></g><g fill="#ffffff" fill-opacity="1"><g transform="translate(576.661586, 450.796582)"><g><path d="M 179.9375 -58.609375 C 179.9375 -42.347656 173.703125 -28.566406 161.234375 -17.265625 C 148.773438 -5.960938 130.507812 0.316406 106.4375 1.578125 L 106.4375 38.015625 L 90.59375 38.015625 L 90.59375 1.90625 C 75.175781 1.0625 60.65625 -1.945312 47.03125 -7.125 C 33.414062 -12.300781 22.703125 -18.898438 14.890625 -26.921875 L 24.078125 -44.984375 C 31.460938 -37.804688 41.117188 -31.785156 53.046875 -26.921875 C 64.984375 -22.066406 77.5 -19.21875 90.59375 -18.375 L 90.59375 -101.6875 C 76.019531 -105.28125 63.875 -109.132812 54.15625 -113.25 C 44.445312 -117.363281 36.375 -123.378906 29.9375 -131.296875 C 23.5 -139.222656 20.28125 -149.734375 20.28125 -162.828125 C 20.28125 -179.085938 26.191406 -192.757812 38.015625 -203.84375 C 49.835938 -214.9375 67.363281 -221.429688 90.59375 -223.328125 L 90.59375 -259.765625 L 106.4375 -259.765625 L 106.4375 -223.640625 C 118.476562 -223.222656 130.144531 -221.269531 141.4375 -217.78125 C 152.738281 -214.300781 162.507812 -209.707031 170.75 -204 L 162.828125 -185.3125 C 154.171875 -190.800781 144.984375 -195.128906 135.265625 -198.296875 C 125.546875 -201.472656 115.9375 -203.269531 106.4375 -203.6875 L 106.4375 -119.75 C 122.0625 -115.945312 134.835938 -112.09375 144.765625 -108.1875 C 154.691406 -104.28125 163.035156 -98.3125 169.796875 -90.28125 C 176.554688 -82.257812 179.9375 -71.703125 179.9375 -58.609375 Z M 43.40625 -163.453125 C 43.40625 -152.472656 47.46875 -144.128906 55.59375 -138.421875 C 63.726562 -132.722656 75.394531 -127.867188 90.59375 -123.859375 L 90.59375 -203.0625 C 74.96875 -201.789062 63.195312 -197.507812 55.28125 -190.21875 C 47.363281 -182.9375 43.40625 -174.015625 43.40625 -163.453125 Z M 106.4375 -18.375 C 123.125 -19.644531 135.691406 -23.765625 144.140625 -30.734375 C 152.585938 -37.703125 156.8125 -46.570312 156.8125 -57.34375 C 156.8125 -68.738281 152.476562 -77.285156 143.8125 -82.984375 C 135.15625 -88.691406 122.695312 -93.550781 106.4375 -97.5625 Z M 106.4375 -18.375 "/></g></g></g><g clip-path="url(#398866fbaa)"><g clip-path="url(#cd34997a30)"><g transform="matrix(1, 0, 0, 1, 13, 688)"><g clip-path="url(#39394d71fa)"><g clip-path="url(#e415da8f70)"><g clip-path="url(#f9994b3294)"><path fill="#0d9488" d="M 1322.058594 0.738281 L 1322.058594 341.742188 L 0.675781 341.742188 L 0.675781 0.738281 Z M 1322.058594 0.738281 " fill-opacity="1" fill-rule="nonzero"/></g></g></g></g></g></g></svg>